<svg width="186" height="140" viewBox="0 0 186 140" fill="none" xmlns="http://www.w3.org/2000/svg">
<path d="M115.838 84.9008C114.647 84.9824 113.207 84.9104 111.772 84.9984C109.935 85.1109 108.102 85.2651 106.274 85.4923C104.894 85.6635 103.526 85.8805 102.186 86.2538C100.307 86.7776 98.751 87.7931 97.5248 89.3162C96.4646 90.633 95.6955 92.1269 94.8875 93.5973C94.8038 93.7493 94.7158 93.8997 94.6416 94.0565C94.5376 94.2752 94.4326 94.3264 94.239 94.1291C92.799 92.664 91.3531 91.2043 89.9072 89.7445C88.9296 88.7579 87.9568 87.7659 86.9627 86.7957C86.7344 86.5733 86.7264 86.3882 86.8214 86.1098C87.4822 84.1765 88.4699 82.4133 89.5963 80.7221C90.7462 78.9957 91.9398 77.2986 93.2283 75.672C94.3792 74.2186 95.656 72.9008 97.3136 72.0069C98.6555 71.2837 100.099 70.8848 101.595 70.657C103.254 70.4048 104.927 70.2992 106.598 70.1584C108.985 69.9568 111.292 69.4154 113.514 68.5024C115.145 67.8325 116.773 67.1386 118.503 66.7504C119.034 66.6314 119.57 66.504 120.131 66.6218C120.741 66.7498 121.061 67.1829 120.939 67.7994C120.764 68.6736 120.257 69.345 119.603 69.913C118.63 70.7584 117.507 71.3893 116.437 72.0965C114.74 73.2192 112.998 74.2762 111.354 75.4784C109.899 76.5424 108.563 77.7322 107.518 79.2186C107.457 79.3056 107.309 79.4101 107.415 79.5141C107.569 79.6656 107.741 79.8208 107.967 79.8586C108.044 79.8714 108.08 79.7642 108.124 79.7024C108.868 78.6586 109.761 77.7557 110.745 76.9381C110.908 76.8026 111.074 76.7578 111.276 76.7792C112.57 76.9141 113.862 77.0778 115.159 77.1696C116.638 77.2746 118.115 77.2389 119.505 76.6149C120.15 76.3253 120.708 75.8853 121.295 75.4981C122.784 74.5152 124.296 73.5648 125.738 72.5125C126.985 71.6026 128.115 70.5722 128.961 69.264C129.732 68.0709 130.233 66.7568 130.665 65.4122C131.149 63.9072 131.543 62.3717 132.165 60.913C132.664 59.7418 133.281 58.6453 134.21 57.7514C134.398 57.5701 134.592 57.3968 134.833 57.2858C135.111 57.1578 135.253 57.1962 135.41 57.4608C135.612 57.8026 135.663 58.1882 135.691 58.5728C135.746 59.328 135.623 60.0725 135.515 60.816C135.075 63.8128 134.505 66.7845 133.811 69.7328C133.702 70.193 133.583 70.6501 133.427 71.0965C133.241 71.6298 132.985 72.12 132.599 72.5418C130.295 75.0634 128.005 77.5973 125.689 80.1082C124.63 81.257 123.51 82.3488 122.34 83.3856C121.539 84.0949 120.566 84.3904 119.537 84.5952C118.392 84.8229 117.238 84.84 115.838 84.8997V84.9008Z" fill="white"/>
<path d="M67.0822 67.7071C67.9846 67.7109 68.8603 67.8954 69.7318 68.1114C71.4177 68.5295 73.0523 69.1237 74.7302 69.5706C76.4198 70.0207 78.1393 70.1999 79.8806 70.2239C81.0657 70.2399 82.2518 70.2266 83.4358 70.2661C84.9196 70.3151 86.4006 70.3989 87.8518 70.7647C89.4427 71.1658 90.8651 71.8863 92.1169 72.9439C92.4998 73.2677 92.8651 73.6122 93.2449 73.9397C93.4187 74.0895 93.4326 74.2117 93.2774 74.3978C91.2673 76.8117 89.4625 79.3733 87.8417 82.0618C87.1537 83.2031 86.5857 84.4095 86.1606 85.6767C86.0876 85.8938 85.9867 85.993 85.7387 85.9418C84.423 85.6693 83.0881 85.5866 81.7489 85.5173C79.1361 85.3823 76.5259 85.3999 73.9153 85.5498C72.8561 85.6106 71.7985 85.6949 70.7377 85.7365C69.5937 85.7813 68.4609 85.6831 67.3414 85.4831C66.5532 85.3423 65.8731 84.9231 65.2411 84.4266C62.8934 82.5818 60.7227 80.5391 58.5644 78.4815C57.2444 77.2229 55.9233 75.9653 54.5761 74.7365C53.8582 74.0815 53.4924 73.2453 53.2044 72.3615C52.3244 69.6661 51.5468 66.9418 50.9073 64.1781C50.6988 63.2767 50.4742 62.3797 50.3323 61.4639C50.2571 60.9775 50.2998 60.4991 50.4326 60.0325C50.5777 59.5253 50.8075 59.4378 51.2689 59.7023C51.7686 59.9887 52.1787 60.3866 52.5531 60.8175C53.5601 61.9765 54.222 63.3365 54.8049 64.7402C55.4081 66.1914 55.9393 67.6714 56.6235 69.0901C57.6188 71.1546 59.1414 72.7199 61.0662 73.9226C62.8673 75.0479 64.7617 76.0101 66.6022 77.0655C67.4678 77.5621 68.3612 77.9493 69.3628 78.0309C70.5921 78.1311 71.8123 78.0325 73.0145 77.7674C74.0694 77.5349 75.1409 77.4031 76.199 77.1941C76.3361 77.1669 76.4412 77.2106 76.5483 77.2858C77.6022 78.0266 78.5862 78.8474 79.4033 79.8485C79.6118 80.1045 79.7414 79.9823 79.9228 79.8431C80.1078 79.7013 80.2155 79.5871 80.0203 79.3583C79.119 78.3013 78.0806 77.4005 76.9414 76.6117C75.2076 75.4117 73.3233 74.4714 71.487 73.4479C70.1558 72.7066 68.7723 72.0565 67.5035 71.2063C66.8065 70.7391 66.2075 70.169 65.8689 69.3754C65.831 69.2869 65.7985 69.1957 65.7697 69.1039C65.5377 68.3589 65.8636 67.8778 66.6779 67.7263C66.8092 67.7018 66.9473 67.713 67.0822 67.7077V67.7071Z" fill="white"/>
<path d="M54.7943 62.0938C54.6988 60.4928 54.5687 58.9952 54.4225 57.4986C54.3991 57.2592 54.3633 57.0213 54.3292 56.7834C54.2887 56.504 54.3473 56.4442 54.6199 56.5322C55.5735 56.841 56.2759 57.4512 56.758 58.3269C57.2337 59.1909 57.4476 60.1429 57.7079 61.08C58.0796 62.4176 58.4065 63.7674 58.6663 65.1301C58.8284 65.9808 58.9191 66.8469 59.1617 67.681C59.5196 68.9109 60.2161 69.9488 61.0721 70.8816C61.9905 71.8816 62.9959 72.8064 63.7164 73.9754C63.8279 74.1557 63.9452 74.3328 64.0577 74.512C64.0924 74.5674 64.1468 74.6282 64.0956 74.6954C64.0417 74.7658 63.9719 74.7269 63.9137 74.6938C62.0263 73.6224 60.1047 72.5984 58.6844 70.8848C57.8444 69.8714 57.2561 68.712 56.7425 67.512C56.1057 66.0234 55.5836 64.4869 54.8828 63.024C54.7292 62.704 54.838 62.3365 54.7937 62.0938H54.7943Z" fill="white"/>
<path d="M131.39 54.5866C131.344 55.393 131.313 56.1626 131.314 56.9333C131.314 57.3759 131.264 57.8202 131.287 58.2613C131.331 59.0997 131.246 59.9402 131.333 60.777C131.34 60.8415 131.333 60.9146 131.309 60.9743C130.6 62.7503 130.179 64.6213 129.506 66.4095C128.967 67.8415 128.251 69.1647 127.171 70.2666C126.076 71.3829 124.799 72.2666 123.495 73.113C123.348 73.2085 123.185 73.473 123.025 73.3295C122.903 73.2207 123.131 73.0143 123.21 72.857C123.764 71.7546 124.503 70.7818 125.303 69.8485C126.294 68.6938 127.08 67.4207 127.417 65.9125C127.597 65.1093 127.59 64.2847 127.684 63.4714C127.838 62.1397 128.047 60.817 128.293 59.4997C128.466 58.5711 128.608 57.6351 128.943 56.7461C129.336 55.705 130.012 54.9247 131.057 54.4933C131.209 54.4309 131.361 54.3743 131.391 54.5871L131.39 54.5866Z" fill="white"/>
<path d="M127.184 56.4602C127.15 57.8762 127.094 59.2917 127.089 60.7077C127.083 62.1861 126.935 63.6517 126.777 65.1173C126.629 66.4837 126.004 67.6496 125.197 68.7322C124.587 69.5514 123.864 70.2826 123.306 71.1445C122.727 72.0389 122.233 72.9744 121.876 73.9797C121.822 74.1296 121.759 74.2618 121.621 74.3525C120.894 74.8277 120.173 75.3104 119.443 75.7802C119.15 75.969 118.819 76.0826 118.485 76.1824C118.397 76.209 118.293 76.2752 118.222 76.1712C118.164 76.088 118.237 76.008 118.276 75.9317C118.667 75.1696 119.199 74.5088 119.761 73.8704C120.57 72.9509 121.452 72.0981 122.194 71.1178C123.1 69.92 123.76 68.6181 123.928 67.105C124.077 65.7621 124.091 64.4144 124.097 63.064C124.103 61.6117 124.071 60.152 124.583 58.7482C125.005 57.5941 125.694 56.7061 126.858 56.2368C127.116 56.1328 127.198 56.192 127.185 56.4613L127.184 56.4602Z" fill="white"/>
<path d="M68.9527 77.1978C68.4945 77.1194 68.0727 76.9808 67.6796 76.7706C66.9991 76.4064 66.3292 76.0224 65.6524 75.6517C65.4844 75.5594 65.3687 75.4362 65.2897 75.2581C64.5655 73.6202 63.5015 72.2272 62.2316 70.9749C61.1495 69.9077 60.2247 68.7264 59.8188 67.2224C59.5623 66.272 59.4337 65.2944 59.2876 64.3242C59.0609 62.8192 58.9505 61.2997 58.806 59.7845C58.7559 59.257 58.6871 58.7317 58.6396 58.2037C58.6124 57.9034 58.6791 57.8538 58.9687 57.9482C59.8988 58.2506 60.6129 58.825 61.0961 59.6768C61.6967 60.736 61.982 61.8842 62.0967 63.0912C62.2716 64.9317 62.3495 66.784 62.7185 68.6021C62.982 69.8997 63.5932 71.024 64.4284 72.0384C65.0684 72.816 65.8012 73.4997 66.5415 74.1781C67.2668 74.8432 67.9911 75.5109 68.5975 76.2922C68.7687 76.5125 68.9201 76.7493 69.0679 76.9861C69.1521 77.1205 69.1111 77.2074 68.9532 77.1978H68.9527Z" fill="white"/>
<path d="M116.4 76.4581C116.226 76.4651 116.053 76.4757 115.879 76.4768C115.785 76.4773 115.668 76.4971 115.619 76.3957C115.565 76.2853 115.67 76.2203 115.736 76.1557C116.189 75.7099 116.65 75.2709 117.101 74.8219C117.716 74.2101 118.359 73.6187 118.714 72.8C118.761 72.6912 118.902 72.5248 118.685 72.4725C118.477 72.4224 118.203 72.1739 118.038 72.4757C117.542 73.3872 116.771 74.0475 116.045 74.7493C115.58 75.1989 115.112 75.6448 114.713 76.1557C114.598 76.3024 114.475 76.3589 114.29 76.3275C113.615 76.2117 112.93 76.1883 112.25 76.1179C112.167 76.1093 112.055 76.1472 112.021 76.0432C111.98 75.9189 112.109 75.8875 112.182 75.8363C113.946 74.6037 115.774 73.4688 117.57 72.2869C118.552 71.6411 119.586 71.0619 120.42 70.2165C121.18 69.4475 121.733 68.5723 121.699 67.4363C121.676 66.6917 121.313 66.2155 120.614 65.9573C120.481 65.9083 120.245 65.9349 120.296 65.6757C120.341 65.4416 120.511 65.3899 120.728 65.3872C121.128 65.3824 121.135 65.3744 121.163 64.9824C121.228 64.0827 121.357 63.2011 121.8 62.3925C122.076 61.8875 122.455 61.4901 122.958 61.2112C123.2 61.0773 123.285 61.1157 123.273 61.3835C123.206 62.9163 123.377 64.4459 123.291 65.9808C123.191 67.7445 122.633 69.3099 121.538 70.6971C120.748 71.6992 119.843 72.5973 119.006 73.5557C118.313 74.3504 117.672 75.1824 117.332 76.2027C117.274 76.3771 117.142 76.4373 116.977 76.4464C116.785 76.4571 116.592 76.4619 116.399 76.4699C116.399 76.4661 116.399 76.4624 116.399 76.4592L116.4 76.4581Z" fill="white"/>
<path d="M63.0684 64.6815C63.0801 64.2378 62.9718 63.5007 62.9137 62.761C62.8956 62.5322 62.9372 62.4815 63.1612 62.5743C63.8172 62.8468 64.2694 63.3263 64.6113 63.9311C65.0326 64.6772 65.2134 65.4922 65.2902 66.3338C65.3105 66.5583 65.3548 66.6868 65.6182 66.6122C65.7265 66.5818 65.8492 66.5871 65.9633 66.5967C66.1217 66.61 66.1921 66.73 66.2241 66.8682C66.255 67.0015 66.1617 67.057 66.0545 67.0964C64.9713 67.4943 64.6956 68.4991 65.1361 69.609C65.5137 70.561 66.1857 71.2623 67.0209 71.8212C68.2908 72.6708 69.671 73.3263 71.0022 74.0671C72.3681 74.8271 73.7553 75.5471 75.1004 76.3439C75.1734 76.3871 75.279 76.4186 75.2636 76.5231C75.2438 76.6548 75.118 76.6186 75.0294 76.6362C74.4054 76.7588 73.767 76.802 73.1521 76.9764C72.9142 77.0436 72.7244 77.0068 72.5361 76.7994C71.8972 76.098 71.1276 75.5402 70.4017 74.9348C69.8657 74.4879 69.3521 74.025 68.998 73.4127C68.9409 73.314 68.8785 73.2879 68.7617 73.3242C68.1702 73.5082 68.1468 73.5711 68.502 74.0927C68.9537 74.7562 69.5713 75.2538 70.175 75.7647C70.6316 76.1508 71.0956 76.5279 71.5542 76.9119C71.6252 76.9716 71.7356 77.0292 71.702 77.1402C71.662 77.273 71.5265 77.2351 71.4273 77.2399C71.1094 77.2559 70.8001 77.345 70.4785 77.3316C70.2193 77.321 70.0412 77.2522 69.9222 76.978C69.5009 76.002 68.7761 75.2463 68.031 74.5151C67.1366 73.6367 66.1633 72.8399 65.3297 71.8975C64.4273 70.8778 63.7041 69.7588 63.4508 68.3972C63.2406 67.2692 63.0844 66.1327 63.0678 64.681L63.0684 64.6815Z" fill="white"/>
<path d="M100.74 19.7675C100.74 17.7478 99.1034 16.111 97.0836 16.111C95.0639 16.111 93.4271 17.7478 93.4271 19.7675C93.4271 21.7872 95.0644 23.424 97.0836 23.424C99.1028 23.424 100.74 21.7872 100.74 19.7675ZM77.8159 62.5254C100.681 49.5291 108.453 27.2672 107.375 13.7995C106.598 19.864 101.52 24.711 97.6484 25.432C93.8751 26.1334 80.6613 18.4646 78.7354 11.2192C80.313 23.9616 92.3221 31.9238 92.6431 35.3088C93.1066 40.1723 87.7285 55.5856 77.8159 62.5248V62.5254ZM95.4954 49.2224C97.2394 55.4742 98.1044 63.4912 96.0186 70.1904C100.185 60.2198 101.375 50.5723 100.705 41.9696C99.1594 44.5088 97.4191 46.9323 95.4959 49.2224H95.4954Z" fill="white"/>
<path d="M83.0593 45.2496C83.3612 38.7931 78.2012 35.2214 74.9313 30.6512C78.5964 35.0128 84.15 38.376 84.2433 44.624C85.7724 42.672 89.5591 37.127 85.6284 32.8715C83.2247 30.2075 78.8679 28.2464 76.1756 26.3888C73.3116 24.6224 72.1137 22.9595 72.0588 22.9883C72.1137 22.9595 70.3569 26.1835 70.2652 29.511C70.0017 32.9291 71.4039 36.4518 73.8076 39.1152C77.7383 43.3707 81.5991 44.8758 83.0599 45.2491L83.0593 45.2496ZM66.0577 47.5072C66.0508 47.4651 67.7697 49.3291 69.926 50.1275C72.1036 51.0582 74.7185 50.9227 76.9943 49.9414C79.7068 48.7344 81.4183 47.2171 82.3537 46.1579C81.7244 45.9622 80.6247 45.5568 79.246 44.7968C76.6508 45.1275 74.2327 46.5627 71.7068 47.328C73.9777 46.4427 76.1591 44.9995 78.4663 44.3435C77.2759 43.6203 75.9308 42.647 74.5308 41.3488C72.6039 42.4992 70.7399 44.4182 69.1943 45.5686C67.4033 47.0502 66.0497 47.4651 66.0567 47.5078L66.0577 47.5072Z" fill="white"/>
<path d="M93.0001 100.118C86.2428 100.118 79.6865 98.7947 73.5143 96.184C67.5532 93.6624 62.1996 90.0533 57.6028 85.4565C53.006 80.8597 49.3964 75.5061 46.8753 69.5451C44.2646 63.3728 42.9409 56.8171 42.9409 50.0592C42.9409 43.3013 44.2646 36.7456 46.8753 30.5733C49.3969 24.6123 53.006 19.2587 57.6028 14.6619C62.1996 10.0651 67.5532 6.45546 73.5143 3.9344C79.6865 1.32373 86.2423 0 93.0001 0C99.758 0 106.314 1.32373 112.486 3.9344C118.447 6.456 123.801 10.0651 128.397 14.6619C132.994 19.2587 136.604 24.6123 139.125 30.5733C141.736 36.7456 143.059 43.3013 143.059 50.0592C143.059 56.8171 141.736 63.3728 139.125 69.5451C136.603 75.5061 132.994 80.8597 128.397 85.4565C123.801 90.0533 118.447 93.6629 112.486 96.184C106.314 98.7947 99.758 100.118 93.0001 100.118ZM93.0001 2.08C66.5441 2.08 45.0209 23.6032 45.0209 50.0592C45.0209 76.5152 66.5441 98.0384 93.0001 98.0384C119.456 98.0384 140.979 76.5152 140.979 50.0592C140.979 23.6032 119.456 2.08 93.0001 2.08Z" fill="white"/>
<path d="M1.79775 132.118V115.318H7.84575C9.18975 115.318 10.3018 115.55 11.1818 116.014C12.0618 116.462 12.7178 117.07 13.1498 117.838C13.5818 118.606 13.7978 119.486 13.7978 120.478C13.7978 121.406 13.5898 122.262 13.1738 123.046C12.7578 123.814 12.1098 124.438 11.2298 124.918C10.3498 125.382 9.22175 125.614 7.84575 125.614H4.67775V132.118H1.79775ZM4.67775 123.262H7.67775C8.81375 123.262 9.62975 123.014 10.1258 122.518C10.6218 122.006 10.8698 121.326 10.8698 120.478C10.8698 119.598 10.6218 118.91 10.1258 118.414C9.62975 117.918 8.81375 117.67 7.67775 117.67H4.67775V123.262ZM21.1933 132.406C20.0413 132.406 19.0013 132.142 18.0733 131.614C17.1613 131.07 16.4413 130.326 15.9133 129.382C15.4013 128.422 15.1453 127.326 15.1453 126.094C15.1453 124.83 15.4093 123.726 15.9373 122.782C16.4653 121.822 17.1853 121.078 18.0973 120.55C19.0253 120.006 20.0653 119.734 21.2173 119.734C22.3693 119.734 23.4013 120.006 24.3133 120.55C25.2413 121.078 25.9613 121.814 26.4733 122.758C27.0013 123.702 27.2653 124.806 27.2653 126.07C27.2653 127.334 27.0013 128.438 26.4733 129.382C25.9453 130.326 25.2173 131.07 24.2893 131.614C23.3773 132.142 22.3453 132.406 21.1933 132.406ZM21.1933 129.934C21.7693 129.934 22.2893 129.79 22.7533 129.502C23.2333 129.214 23.6173 128.782 23.9053 128.206C24.1933 127.63 24.3373 126.918 24.3373 126.07C24.3373 125.222 24.1933 124.518 23.9053 123.958C23.6333 123.382 23.2573 122.95 22.7773 122.662C22.3133 122.374 21.7933 122.23 21.2173 122.23C20.6573 122.23 20.1373 122.374 19.6573 122.662C19.1773 122.95 18.7933 123.382 18.5053 123.958C18.2173 124.518 18.0733 125.222 18.0733 126.07C18.0733 126.918 18.2173 127.63 18.5053 128.206C18.7933 128.782 19.1693 129.214 19.6333 129.502C20.1133 129.79 20.6333 129.934 21.1933 129.934ZM32.0627 132.118L28.5107 120.022H31.3667L33.8387 129.958L33.3107 129.934L36.0707 120.022H39.2867L42.0707 129.934H41.5427L44.0147 120.022H46.8707L43.3187 132.118H40.3427L37.3907 121.87H37.9907L35.0387 132.118H32.0627ZM54.1704 132.406C52.9704 132.406 51.9144 132.15 51.0024 131.638C50.0904 131.11 49.3784 130.374 48.8664 129.43C48.3544 128.486 48.0984 127.398 48.0984 126.166C48.0984 124.886 48.3464 123.766 48.8424 122.806C49.3544 121.846 50.0664 121.094 50.9784 120.55C51.9064 120.006 52.9784 119.734 54.1944 119.734C55.3784 119.734 56.4104 119.998 57.2904 120.526C58.1704 121.054 58.8504 121.766 59.3304 122.662C59.8104 123.542 60.0504 124.534 60.0504 125.638C60.0504 125.798 60.0504 125.974 60.0504 126.166C60.0504 126.358 60.0344 126.558 60.0024 126.766H50.1624V124.918H57.1464C57.1144 124.038 56.8184 123.35 56.2584 122.854C55.6984 122.342 55.0024 122.086 54.1704 122.086C53.5784 122.086 53.0344 122.222 52.5384 122.494C52.0424 122.766 51.6504 123.174 51.3624 123.718C51.0744 124.246 50.9304 124.918 50.9304 125.734V126.43C50.9304 127.182 51.0664 127.83 51.3384 128.374C51.6264 128.918 52.0104 129.334 52.4904 129.622C52.9864 129.894 53.5384 130.03 54.1464 130.03C54.8184 130.03 55.3704 129.886 55.8024 129.598C56.2504 129.31 56.5784 128.926 56.7864 128.446H59.7144C59.4904 129.198 59.1224 129.878 58.6104 130.486C58.0984 131.078 57.4664 131.55 56.7144 131.902C55.9624 132.238 55.1144 132.406 54.1704 132.406ZM62.7096 132.118V120.022H65.2776L65.5416 122.278C65.8296 121.75 66.1896 121.302 66.6216 120.934C67.0536 120.55 67.5576 120.254 68.1336 120.046C68.7256 119.838 69.3736 119.734 70.0776 119.734V122.782H69.0696C68.5896 122.782 68.1336 122.846 67.7016 122.974C67.2696 123.086 66.8936 123.278 66.5736 123.55C66.2696 123.806 66.0296 124.166 65.8536 124.63C65.6776 125.078 65.5896 125.646 65.5896 126.334V132.118H62.7096ZM85.86 132.406C84.244 132.406 82.812 132.046 81.564 131.326C80.332 130.59 79.364 129.574 78.66 128.278C77.956 126.966 77.604 125.446 77.604 123.718C77.604 122.006 77.956 120.502 78.66 119.206C79.364 117.894 80.332 116.87 81.564 116.134C82.812 115.398 84.244 115.03 85.86 115.03C87.508 115.03 88.956 115.398 90.204 116.134C91.452 116.87 92.42 117.894 93.108 119.206C93.796 120.502 94.14 122.006 94.14 123.718C94.14 125.446 93.796 126.966 93.108 128.278C92.42 129.574 91.452 130.59 90.204 131.326C88.956 132.046 87.508 132.406 85.86 132.406ZM85.884 129.814C86.956 129.814 87.892 129.574 88.692 129.094C89.492 128.598 90.108 127.894 90.54 126.982C90.972 126.07 91.188 124.982 91.188 123.718C91.188 122.454 90.972 121.366 90.54 120.454C90.108 119.542 89.492 118.846 88.692 118.366C87.892 117.87 86.956 117.622 85.884 117.622C84.812 117.622 83.876 117.87 83.076 118.366C82.276 118.846 81.652 119.542 81.204 120.454C80.772 121.366 80.556 122.454 80.556 123.718C80.556 124.982 80.772 126.07 81.204 126.982C81.652 127.894 82.276 128.598 83.076 129.094C83.876 129.574 84.812 129.814 85.884 129.814ZM100.17 132.118L95.706 120.022H98.73L101.922 129.382L105.114 120.022H108.09L103.626 132.118H100.17ZM115.225 132.406C114.025 132.406 112.969 132.15 112.057 131.638C111.145 131.11 110.433 130.374 109.921 129.43C109.409 128.486 109.153 127.398 109.153 126.166C109.153 124.886 109.401 123.766 109.897 122.806C110.409 121.846 111.121 121.094 112.033 120.55C112.961 120.006 114.033 119.734 115.249 119.734C116.433 119.734 117.465 119.998 118.345 120.526C119.225 121.054 119.905 121.766 120.385 122.662C120.865 123.542 121.105 124.534 121.105 125.638C121.105 125.798 121.105 125.974 121.105 126.166C121.105 126.358 121.089 126.558 121.057 126.766H111.217V124.918H118.201C118.169 124.038 117.873 123.35 117.313 122.854C116.753 122.342 116.057 122.086 115.225 122.086C114.633 122.086 114.089 122.222 113.593 122.494C113.097 122.766 112.705 123.174 112.417 123.718C112.129 124.246 111.985 124.918 111.985 125.734V126.43C111.985 127.182 112.121 127.83 112.393 128.374C112.681 128.918 113.065 129.334 113.545 129.622C114.041 129.894 114.593 130.03 115.201 130.03C115.873 130.03 116.425 129.886 116.857 129.598C117.305 129.31 117.633 128.926 117.841 128.446H120.769C120.545 129.198 120.177 129.878 119.665 130.486C119.153 131.078 118.521 131.55 117.769 131.902C117.017 132.238 116.169 132.406 115.225 132.406ZM123.764 132.118V120.022H126.332L126.596 122.278C126.884 121.75 127.244 121.302 127.676 120.934C128.108 120.55 128.612 120.254 129.188 120.046C129.78 119.838 130.428 119.734 131.132 119.734V122.782H130.124C129.644 122.782 129.188 122.846 128.756 122.974C128.324 123.086 127.948 123.278 127.628 123.55C127.324 123.806 127.084 124.166 126.908 124.63C126.732 125.078 126.644 125.646 126.644 126.334V132.118H123.764ZM139.259 132.118V115.318H145.307C146.651 115.318 147.763 115.55 148.643 116.014C149.523 116.462 150.179 117.07 150.611 117.838C151.043 118.606 151.259 119.486 151.259 120.478C151.259 121.406 151.051 122.262 150.635 123.046C150.219 123.814 149.571 124.438 148.691 124.918C147.811 125.382 146.683 125.614 145.307 125.614H142.139V132.118H139.259ZM142.139 123.262H145.139C146.275 123.262 147.091 123.014 147.587 122.518C148.083 122.006 148.331 121.326 148.331 120.478C148.331 119.598 148.083 118.91 147.587 118.414C147.091 117.918 146.275 117.67 145.139 117.67H142.139V123.262ZM156.953 132.406C155.961 132.406 155.137 132.238 154.48 131.902C153.825 131.566 153.337 131.118 153.017 130.558C152.697 129.998 152.537 129.39 152.537 128.734C152.537 127.966 152.729 127.302 153.113 126.742C153.513 126.182 154.097 125.75 154.865 125.446C155.633 125.126 156.577 124.966 157.697 124.966H160.745C160.745 124.326 160.657 123.798 160.481 123.382C160.305 122.95 160.033 122.63 159.665 122.422C159.297 122.214 158.825 122.11 158.249 122.11C157.593 122.11 157.033 122.262 156.569 122.566C156.105 122.854 155.817 123.302 155.705 123.91H152.873C152.969 123.046 153.257 122.31 153.737 121.702C154.217 121.078 154.849 120.598 155.633 120.262C156.433 119.91 157.305 119.734 158.249 119.734C159.385 119.734 160.353 119.934 161.153 120.334C161.953 120.718 162.561 121.278 162.977 122.014C163.409 122.734 163.625 123.606 163.625 124.63V132.118H161.177L160.889 130.174C160.729 130.494 160.521 130.79 160.265 131.062C160.025 131.334 159.745 131.574 159.425 131.782C159.105 131.974 158.737 132.126 158.321 132.238C157.921 132.35 157.465 132.406 156.953 132.406ZM157.601 130.126C158.065 130.126 158.473 130.046 158.825 129.886C159.193 129.71 159.505 129.47 159.761 129.166C160.033 128.846 160.241 128.494 160.385 128.11C160.529 127.726 160.625 127.318 160.673 126.886V126.838H158.009C157.449 126.838 156.985 126.91 156.617 127.054C156.249 127.182 155.985 127.374 155.825 127.63C155.665 127.886 155.585 128.182 155.585 128.518C155.585 128.854 155.665 129.142 155.825 129.382C155.985 129.622 156.217 129.806 156.521 129.934C156.825 130.062 157.185 130.126 157.601 130.126ZM166.822 132.118V120.022H169.702V132.118H166.822ZM168.262 118.102C167.734 118.102 167.294 117.942 166.942 117.622C166.606 117.286 166.438 116.878 166.438 116.398C166.438 115.902 166.606 115.502 166.942 115.198C167.294 114.878 167.734 114.718 168.262 114.718C168.79 114.718 169.222 114.878 169.558 115.198C169.91 115.502 170.086 115.902 170.086 116.398C170.086 116.878 169.91 117.286 169.558 117.622C169.222 117.942 168.79 118.102 168.262 118.102ZM173.03 132.118V120.022H175.574L175.79 122.038C176.158 121.334 176.686 120.774 177.374 120.358C178.062 119.942 178.878 119.734 179.822 119.734C180.798 119.734 181.63 119.942 182.318 120.358C183.006 120.758 183.534 121.35 183.902 122.134C184.286 122.918 184.478 123.894 184.478 125.062V132.118H181.598V125.326C181.598 124.318 181.374 123.542 180.926 122.998C180.478 122.454 179.814 122.182 178.934 122.182C178.358 122.182 177.838 122.318 177.374 122.59C176.926 122.862 176.566 123.262 176.294 123.79C176.038 124.302 175.91 124.926 175.91 125.662V132.118H173.03Z" fill="white"/>
</svg>
